<svg width="34" height="30" viewBox="0 0 34 30" fill="none" xmlns="http://www.w3.org/2000/svg">
<path d="M22.2933 2.96474C24.3465 4.07622 24.0664 7.04261 25.445 8.87535C27.0689 11.0341 31.2605 11.8133 31.001 14.5408C30.7435 17.2474 29.385 21.0036 26 22.5208C23.5322 23.6268 21.0069 21.5737 19.1952 22.5208C16.5493 23.9039 14.2598 26.923 11.381 26.4309C8.55027 25.9471 7.5284 22.6438 6.09783 20.2822C4.66444 17.9159 2.34711 15.4986 3.10074 12.7617C3.85309 10.0294 7.37995 9.09347 9.67825 7.27927C11.4859 5.8524 12.928 4.02779 15.111 3.28116C17.4573 2.47869 20.1998 1.83146 22.2933 2.96474Z" fill="#FCFAFA"/>
<path d="M7.49892 20V10.9H9.24092L14.6099 17.452H13.7649V10.9H15.8449V20H14.1159L8.73392 13.448H9.57892V20H7.49892ZM20.6899 20L16.7639 10.9H19.0389L22.4709 18.96H21.1319L24.6159 10.9H26.7089L22.7699 20H20.6899Z" fill="#030202"/>
</svg>
